<svg class="hidden-xs" id="Layer_1" data-name="Layer 1" xmlns="http://www.w3.org/2000/svg" viewBox="0 0 238.06 97.88" style="width: 160px; float: left; margin-left: 30px; ;z-index: 10; position: relative;"><defs><style>.cls-yum-brands-logos-2020-1{fill:#ec1c24;}.cls-yum-brands-logos-2020-2{fill:#fff;}.cls-yum-brands-logos-2020-3{fill:#1d1819;}.cls-yum-brands-logos-2020-4{fill:#ee363d;}.cls-yum-brands-logos-2020-5{fill:#ee2f2a;}</style></defs><path class="cls-yum-brands-logos-2020-1" d="M4.89,96.71,49.26,73.29c2.56.22,5.17.34,7.83.34C88,73.63,113,57.94,113,38.58s-25-35-55.92-35S1.17,19.22,1.17,38.58c0,13.12,11.51,24.56,28.54,30.57Z"></path><path class="cls-yum-brands-logos-2020-2" d="M37.49,22.6h-11l.53,3,1,0a8.82,8.82,0,0,1,2,.2c.3.09.32.19.34.31a.54.54,0,0,1,0,.08,4.66,4.66,0,0,1-.66,1.86c-.36.7-1,1.74-1.81,3l-2.79,4.31-3.67-8s0,0,0,0-.13-.28-.27-.64a5.59,5.59,0,0,1-.24-.72.46.46,0,0,1,0-.1l.08,0a6.85,6.85,0,0,1,1.87-.24l1.33-.07-.54-3H10.19l.54,3,.87.09a4.94,4.94,0,0,1,1.93.45,5.92,5.92,0,0,1,1.15,1.93s5.38,11.56,5.64,12.13c-.06.61-1.08,9.46-1.08,9.46a2.45,2.45,0,0,1-.89,2A6.53,6.53,0,0,1,16,52l-1.29.1.54,3H31.05L30.5,52l-.95,0a11,11,0,0,1-3-.33c-.18-.06-.31-.31-.39-.73a5.36,5.36,0,0,1-.06-.87,13.42,13.42,0,0,1,.12-1.57s.82-6.9,1-8.3L35,27.91a7.63,7.63,0,0,1,1.38-1.8,3,3,0,0,1,1.4-.44L39,25.53l-.53-2.93Z"></path><path class="cls-yum-brands-logos-2020-2" d="M41.23,32.32h.06L37.81,33l-4.32.89L34,36.59h1a7.13,7.13,0,0,1,1.74.13,1.22,1.22,0,0,1,.08.3l0,.19v.37c0,.06-.93,12.67-.93,12.67s0,.86,0,.88a5.38,5.38,0,0,0,.1.95,4.05,4.05,0,0,0,2.21,3.11,4.49,4.49,0,0,0,1.92.44c2.25,0,4.32-1.42,6.18-4.21.34-.52.71-1.16,1.11-1.91,0,.44-.07.86-.07,1.25v.16a10.06,10.06,0,0,0,.13,1.48,3.7,3.7,0,0,0,1.39,2.43,3.93,3.93,0,0,0,2.42.77c1.67,0,3.24-1,4.66-3a16.58,16.58,0,0,0,1.77-3.18l.41-.94L55.51,47l-1.58,2.47a10.84,10.84,0,0,1-.64.95l-.07.08,0-.38s1.45-16,1.45-16l.11-1.28H49.13l-.17,1c-.44,2.47-.81,4.3-1.09,5.46a28.9,28.9,0,0,1-1.61,4.89,31.15,31.15,0,0,1-2.59,4.74c-1.17,1.76-1.82,1.85-1.94,1.85h-.07a1.1,1.1,0,0,1,0-.11v-.2s.07-.82.07-.82S43,34.16,43,34.16v-.39a1.46,1.46,0,0,0-.44-1v0h0A1.41,1.41,0,0,0,41.23,32.32Z"></path><path class="cls-yum-brands-logos-2020-2" d="M65.66,32.36c-3.22.74-5.59,1.24-7,1.48L57.44,34,58,37l1,0a9.23,9.23,0,0,1,1.92.06.4.4,0,0,1,0,.16.9.9,0,0,1,0,.25s0,.37,0,.37L59.25,55.1H65l.14-1c.35-2.52.64-4.47.88-5.8a20.56,20.56,0,0,1,1.47-5A27.47,27.47,0,0,1,70.07,39C71.3,37.24,72,37.1,72.2,37.1h0a1,1,0,0,1,0,.19l0,.19s0,.3,0,.32-1.57,17.3-1.57,17.3h5.84l.1-1.06c.35-3.67.6-6,.77-7a19.21,19.21,0,0,1,1.12-3.74,27.59,27.59,0,0,1,2.57-4.41c.8-1.15,1.56-1.78,2.14-1.79a.31.31,0,0,1,.06.15v.54l-1,12.63v0h0l0,.95a7.93,7.93,0,0,0,.08.9A3.94,3.94,0,0,0,84,55a3.45,3.45,0,0,0,1.93.56,5.41,5.41,0,0,0,3.82-1.7,15.71,15.71,0,0,0,2.85-4s.17-.31.17-.31l.49-.92-2.66-1.82-1.73,2.7-.17.27c-.15.21-.32.44-.52.69h0c.13-1.44,1.07-11.51,1.07-11.51v0c0-.73.05-1.26.05-1.65a6.12,6.12,0,0,0-.06-1,4.53,4.53,0,0,0-1.76-3.07,4.71,4.71,0,0,0-2.75-.94c-2.08,0-4.07,1.35-6.08,4.12h0c-.17.24-.35.51-.53.79a7.09,7.09,0,0,0-.08-1A4.6,4.6,0,0,0,75.93,33a4.27,4.27,0,0,0-2.3-.67c-2,0-3.86,1.23-5.78,3.76v0c-.31.43-.62.89-.94,1.37l.47-4.36-1.18-.88Z"></path><path class="cls-yum-brands-logos-2020-2" d="M97.22,23.85h0a11.9,11.9,0,0,0-.6,4.61l0,4.18c0,.27,0,1.52-.14,6.08l-.22,7.82,1,.2,1.92.38,1.55-7.44c.66-3,.94-4.24,1-4.71,1-3.95,1.59-6.29,1.74-7.16a8.17,8.17,0,0,0,0-2.7,4,4,0,0,0-1.14-2.19,3.3,3.3,0,0,0-2.37-1A3,3,0,0,0,97.22,23.85ZM94.34,49.62h0a3.11,3.11,0,0,0-.64,2.47,4.15,4.15,0,0,0,1.52,2.63,4,4,0,0,0,2.51.91,3.14,3.14,0,0,0,2.54-1.17A3.27,3.27,0,0,0,101,51.8a3.89,3.89,0,0,0-1.53-2.46,4.16,4.16,0,0,0-2.53-.91A3.05,3.05,0,0,0,94.34,49.62Z"></path><path class="cls-yum-brands-logos-2020-2" d="M167.88,64.57a11.37,11.37,0,1,0-22.74,0h0v8.85a.37.37,0,0,0,.37.37h22a.37.37,0,0,0,.37-.37Z"></path><path class="cls-yum-brands-logos-2020-3" d="M165.55,64.15c-.39-1-3.71-.24-8.32,2.24s-7.17,5.22-6.77,6,5,.26,8.77-1.79c5-2.8,6.8-5.3,6.32-6.5"></path><path class="cls-yum-brands-logos-2020-2" d="M154.7,71.13a2.83,2.83,0,0,1-2-.82,19.78,19.78,0,0,1,4.52-3.24,2.81,2.81,0,0,1-2.48,4.06"></path><path class="cls-yum-brands-logos-2020-3" d="M147.58,73.2a2.11,2.11,0,0,0,.9.56l.13,0h-3.1a.37.37,0,0,1-.37-.37V64.58h0a11.35,11.35,0,0,1,4.74-9.24h0l-.13.15a1.13,1.13,0,0,0-.08,1.25c.12.33-.25.71-.44.92a6.36,6.36,0,0,0-1.74,4.26,16.65,16.65,0,0,0,.68,4.57,12.19,12.19,0,0,1,.26,1.46c.73-.62,1.52-1.22,2.31-1.78,1.27-.84,2.31-1.46,3.22-2,2-1.09,2.55-1,.95,0a27.42,27.42,0,0,0-4.23,3c-4.16,3.75-3.54,5.6-3.1,6"></path><path class="cls-yum-brands-logos-2020-3" d="M167.88,73.43a.37.37,0,0,1-.37.37H153.13l.2,0a22.55,22.55,0,0,0,6.35-2.43c4.45-2.3,7.37-5.27,8.14-7.43l0-.11a.45.45,0,0,1,0,.1c0,.18,0,.46,0,.69v8.86"></path><path class="cls-yum-brands-logos-2020-3" d="M151.54,54.33h0a11.38,11.38,0,0,1,16,7.29,2.46,2.46,0,0,0-.58-.34,5.84,5.84,0,0,0-1.23-.34,6.52,6.52,0,0,1-2.22-.61c-1.45-.79-3.38-4.18-6.47-5.08a6.69,6.69,0,0,0-3.09-.17c-.25,0-.76.1-.94-.14-.37-.48-.65-.77-1.21-.66l-.22,0"></path><polygon class="cls-yum-brands-logos-2020-3" points="146.23 83.23 147.88 83.23 147.88 77.86 149.96 77.86 149.96 76.43 144.15 76.43 144.15 77.86 146.23 77.86 146.23 83.23"></polygon><path class="cls-yum-brands-logos-2020-3" d="M150.47,83.23l.38-1h2.73l.37,1h1.83L153,76.43h-1.39l-2.9,6.8Zm1.78-4.76.82,2.41h-1.71Z"></path><path class="cls-yum-brands-logos-2020-3" d="M159,83.34a3.58,3.58,0,0,0,2.85-1.23l-1.37-1a1.79,1.79,0,0,1-1.52.72c-1.08,0-1.7-.84-1.7-2a1.77,1.77,0,0,1,1.76-2,1.56,1.56,0,0,1,1.36.73l1.34-1a3.26,3.26,0,0,0-2.7-1.29,3.52,3.52,0,0,0,0,7Z"></path><path class="cls-yum-brands-logos-2020-3" d="M165.4,83.34a3.52,3.52,0,1,0-3.47-3.51A3.35,3.35,0,0,0,165.4,83.34Zm0-5.51a2,2,0,1,1-1.73,2A1.77,1.77,0,0,1,165.4,77.83Z"></path><path class="cls-yum-brands-logos-2020-3" d="M150.27,87.48a1.5,1.5,0,0,0,.94-1.52c0-1-.8-1.6-2.36-1.6h-2.62v6.8h3c1.73,0,2.56-.63,2.56-2A1.66,1.66,0,0,0,150.27,87.48Zm-2.48-1.8h.65c.8,0,1.12.17,1.12.65s-.31.71-.94.71h-.83Zm1,4.06h-1V88.33h1c.88,0,1.26.2,1.26.71S149.77,89.74,148.77,89.74Z"></path><polygon class="cls-yum-brands-logos-2020-3" points="154.06 88.41 156.93 88.41 156.93 87.03 154.06 87.03 154.06 85.79 157.5 85.79 157.5 84.36 152.41 84.36 152.41 91.16 157.58 91.16 157.58 89.73 154.06 89.73 154.06 88.41"></polygon><polygon class="cls-yum-brands-logos-2020-3" points="160.04 84.36 158.39 84.36 158.39 91.16 163.04 91.16 163.04 89.73 160.04 89.73 160.04 84.36"></polygon><polygon class="cls-yum-brands-logos-2020-3" points="165.5 84.36 163.85 84.36 163.85 91.16 168.5 91.16 168.5 89.73 165.5 89.73 165.5 84.36"></polygon><path class="cls-yum-brands-logos-2020-3" d="M169.23,89.82v.64h-.1v-.64h-.2v-.09h.5v.09Zm.87.64v-.52l-.17.34h-.1l-.17-.34v.52h-.1v-.73h.1l.22.44.22-.44h.1v.73Z"></path><path class="cls-yum-brands-logos-2020-4" d="M224.89,2.12c9.6,3,10.94,14.19,10.94,14.19a29.3,29.3,0,0,1-.32,8.37c-.38,1.58-.73,5.76-7.56,11.11-1.32,1-2.87,2.23-4.46,2.38-.2,0-.4,0-.5-.11s.2-.53.28-.57c4.15-2.47,9.91-6.64,10.15-16.49,0,0,.58-9.27-5.15-13.64a22.41,22.41,0,0,0-6.58-3.57c-.31-.09-3.19-.73-3.27-.24-.11.69,1.06.74,1.65.75a9.74,9.74,0,0,1,3.46,1.08c4.95,2.43,6.26,5.29,6.69,6,1.93,3.06,1.85,8.91,1.86,9.76.06,5.29-2.72,8.91-4,10.63-2.13,2.93-6.92,6.67-14.71,7.33a18.05,18.05,0,0,1-9.8-2.06,14.63,14.63,0,0,1-5.09-5.13c-.37-.69-1.08-2.49-.24-2.66.51-.1,1.25,1.45,2.63,2.94a14.69,14.69,0,0,0,4.39,3.52c2.47,1.22,5.47,1.91,6.71,1.71a.22.22,0,0,0,0-.44,28.05,28.05,0,0,1-3.52-.75,19.94,19.94,0,0,1-7.61-5.61,12.53,12.53,0,0,1-2.15-5,41.77,41.77,0,0,1-.13-7.95,15.17,15.17,0,0,1,5.29-9.18c1.91-1.68,5.43-2.87,6.34-3.31a.14.14,0,0,0,0-.27,1.48,1.48,0,0,0-.55,0,2.59,2.59,0,0,1-.42.09c-.4.08-11.7,2.64-11.83,16.38,0,1.23-1.08.53-1.21-.23a14.59,14.59,0,0,1,.16-6,16.58,16.58,0,0,1,5.43-8.54A25.56,25.56,0,0,1,213.6,1.52a19.76,19.76,0,0,1,11.29.6M197.13,27.87a.54.54,0,0,0,.7-.6,9.24,9.24,0,0,1-.16-1.54A3,3,0,0,0,197.2,24a1,1,0,0,0-.77-.38c-1.4,0-.94,2.22-.73,3a1.74,1.74,0,0,0,.5.87,2,2,0,0,0,.93.41"></path><path class="cls-yum-brands-logos-2020-2" d="M225.15,12.86l-.49-.22c-.49-.23-1.71-.62-2.69-.92-.55-.18-1.11-.35-1.21-.4a11.62,11.62,0,0,1-.46-1.71l-.13-.55c-.09-.32-.2-.5-.51-.48h0c-.11,0-1.56.3-3.94.78l-3.36.68c-.13,0-.21.07-1.25,1.65-.31.47-.7,1.06-.76,1.12l-.49.21c-.66.27-1.89.78-2.94,1.33a20.47,20.47,0,0,0-3.58,2.22.32.32,0,0,0,0,.33.5.5,0,0,0,.47.19l.15,0c.22,0,7.31-1.09,11.37-1.55,1-.11,2.3-.21,3.81-.29,3.73-.2,7.48-.21,7.69-.18a.67.67,0,0,0,.6-.2.7.7,0,0,0,.18-.5C227.58,14,226.8,13.58,225.15,12.86Z"></path><path class="cls-yum-brands-logos-2020-2" d="M212.24,20.07c0-.36-.09-.54-.2-.61a.29.29,0,0,0-.2,0h0a.46.46,0,0,0-.28.33.78.78,0,0,1-.12.18c-1.3,1.75-1.47,2.35-1.54,2.9a1.42,1.42,0,0,0,.35,1.17.48.48,0,0,0,.42.13.38.38,0,0,0,.26-.17.31.31,0,0,0,0-.25,4.88,4.88,0,0,1,.49-1.14,5.54,5.54,0,0,0,.82-2.5"></path><path class="cls-yum-brands-logos-2020-2" d="M212.08,18.94h0c.34-.07.62-.45.78-.66.31-.43.68-1,.85-1.27a1.34,1.34,0,0,0,.14-.26.23.23,0,0,0,0-.23c-.06-.07-.16-.08-.32,0a3.22,3.22,0,0,0-1.72,1.17,1.27,1.27,0,0,0-.29.92.44.44,0,0,0,.54.37"></path><path class="cls-yum-brands-logos-2020-2" d="M219.49,22.47a.46.46,0,0,0-.15.05,4.87,4.87,0,0,1-1.11.25,5.75,5.75,0,0,1-1.35-.08,9.12,9.12,0,0,0-2.22-.08l-.46.07c.28-.28,1-1.07,1.47-1.53a4.93,4.93,0,0,0,1-1.29.64.64,0,0,0,0-.6.52.52,0,0,0-.47-.14l-2.64.27h-.29c-.27,0-.47.09-.52.29a.47.47,0,0,0,.23.49,1.65,1.65,0,0,0,.88.15l.45,0a5,5,0,0,0,.8-.15L213,22.09a1.59,1.59,0,0,0-.13.13,3.94,3.94,0,0,0-.92,1.06c-.15.32-.14.6,0,.76a.47.47,0,0,0,.38.11,2.38,2.38,0,0,0,.41-.1,8.75,8.75,0,0,1,1.69-.34,17.68,17.68,0,0,1,2.36-.06,5.52,5.52,0,0,0,.92,0,3.45,3.45,0,0,0,1.72-.57h0c.11-.09.33-.25.23-.44a.21.21,0,0,0-.24-.12"></path><path class="cls-yum-brands-logos-2020-2" d="M210,20.88a2,2,0,0,0-.56-2.37,2.86,2.86,0,0,0-2.35-.5,3.62,3.62,0,0,0-1.31.49.9.9,0,0,0-.47.64.49.49,0,0,0,.11.39c.05.06.14.11.38.07a2.8,2.8,0,0,0,.43-.13,14.07,14.07,0,0,0-2.06,4.23c-.55,1.76-.7,2.79-.47,3.16a.33.33,0,0,0,.23.14H204c.49-.09,1-1.35,1.65-3.1l.3-.78c1.13-2.87,1.19-3.57,1.13-3.76.34,0,1.56,0,1.7,1,.12.77-.7,1.48-1.51,1.88a3.59,3.59,0,0,1-.6.23,1.93,1.93,0,0,0-.37.16.14.14,0,0,0-.08.17c0,.13.36.23.86.15h0a4,4,0,0,0,2.86-2"></path><path class="cls-yum-brands-logos-2020-2" d="M219.19,25.72a.61.61,0,0,0-.09-.46.25.25,0,0,0-.18-.08h-.08c-.21,0-.35.26-.54.56a5.54,5.54,0,0,1-.88,1.12,5.67,5.67,0,0,1-1.21.92,3.56,3.56,0,0,0,.16-1.25.81.81,0,0,0-.29-.62.74.74,0,0,0-.6-.11A1,1,0,0,0,215,26a.17.17,0,0,0-.05.14c0,.07.07.12.18.17s.17.19.13.33l0,.09c0,.12-.08.25-.13.39a2.27,2.27,0,0,0-.19,1.49.76.76,0,0,0,.94.44,1.34,1.34,0,0,0,.27-.07,4,4,0,0,0,1.66-1.44,1.5,1.5,0,0,0,.65,1.17.56.56,0,0,0,.42.14.23.23,0,0,0,.17-.12.41.41,0,0,0,0-.33,6.91,6.91,0,0,1,.13-2.06c0-.27.07-.5.08-.63"></path><path class="cls-yum-brands-logos-2020-2" d="M225.16,23.88c-.11-.1-.33-.06-1.14.12l-.84.18-.46.11-.37.09,0-.08a6.25,6.25,0,0,0,.34-.8.59.59,0,0,0-.08-.52.32.32,0,0,0-.31-.09.46.46,0,0,0-.29.18A9.42,9.42,0,0,0,221,24.66a4.51,4.51,0,0,1-1,.07.87.87,0,0,0-.28,0h0a.43.43,0,0,0-.33.27.36.36,0,0,0,0,.29.58.58,0,0,0,.29.29,2.21,2.21,0,0,0,.84.13,7,7,0,0,0-.56,3.51q0,.32.15.39a.14.14,0,0,0,.12,0c.12,0,.23-.17.3-.39s.82-2.44,1.37-3.82c1.13-.4,2-.75,2.75-1.08l0,0a2.68,2.68,0,0,0,.46-.23.19.19,0,0,0,.06-.13.13.13,0,0,0,0-.09"></path><path class="cls-yum-brands-logos-2020-2" d="M214.86,26.8a.12.12,0,0,0-.11-.09.41.41,0,0,0-.24,0l-.12.05-.39.13c.11-.53.22-1,.31-1.31.18-.72.27-1.08.15-1.25a.26.26,0,0,0-.19-.09s0,0-.06,0c-.48.09-1.21,1.61-1.69,3.08l-.11,0c-.52.13-1.09.26-1.69.38.13-.42.27-.83.44-1.3v0a5.48,5.48,0,0,0,.42-1.7c0-.26-.17-.3-.25-.29h0c-.53.1-1.54,1.93-2.22,3.61H209l-.17,0a6.83,6.83,0,0,0-1,.22c-.33.13-.53.31-.53.51s.13.35.39.47a2,2,0,0,0,.82.17c-.26.81-.62,2.2-.29,2.74a.44.44,0,0,0,.33.22.57.57,0,0,0,.26,0c.58-.1.84-.93,1-1.55s.27-1.1.44-1.68a14,14,0,0,0,1.91-.69c-.18.8-.38,2.06.19,2.19a.61.61,0,0,0,.3,0,.92.92,0,0,0,.6-.5,4.7,4.7,0,0,0,.37-1.42c.06-.38.13-.76.19-1.11a5.1,5.1,0,0,0,.9-.62c.1-.1.15-.2.12-.28"></path><path class="cls-yum-brands-logos-2020-2" d="M225.52,20a.39.39,0,0,1-.28-.13c-.14-.17-.08-.37.06-.77l.18-.56a.58.58,0,0,0,0-.5.36.36,0,0,0-.25-.15.59.59,0,0,0-.31.11,2.26,2.26,0,0,0-.64,0,4.26,4.26,0,0,0-3,1.87,1.37,1.37,0,0,0-.18,1.27s0,.05,0,.08l0,0a1.62,1.62,0,0,1-.63.16,5.47,5.47,0,0,1-1.21-.07l-.54-.06c.31-.29,1.29-1.28,1.68-1.69a6.63,6.63,0,0,0,.52-.59.66.66,0,0,0,0-.74c-.12-.14-.38-.31-1-.26l-.31,0c-1,.17-1.65.27-1.92.3a.55.55,0,0,1-.26,0l-.15,0h0a.36.36,0,0,0-.3.18.53.53,0,0,0,0,.48.76.76,0,0,0,.71.41,3.6,3.6,0,0,0,.54,0c.42,0,.89-.11,1.13-.14-.24.21-.54.45-.86.7A15.43,15.43,0,0,0,217,21.12c-.43.45-.63.91-.51,1.14a.32.32,0,0,0,.37.13,3.44,3.44,0,0,1,.69-.11c.34,0,.69,0,1,0s.69,0,1,0A3.93,3.93,0,0,0,220.7,22c.39-.17.63-.37.68-.56a.74.74,0,0,0,.21.07,1.88,1.88,0,0,0,.48,0,3.69,3.69,0,0,0,1.78-.83l.21-.15a1.15,1.15,0,0,0,1.07.33h0a1.92,1.92,0,0,0,1-.39.18.18,0,0,0,.06-.16c0-.13-.14-.3-.7-.35m-1.37-1.09a2.52,2.52,0,0,0-.29.79,4.86,4.86,0,0,1-1.31.57c-.08,0-.1,0-.11,0s0,0,0-.05a2.41,2.41,0,0,1,1.71-1.29"></path><path class="cls-yum-brands-logos-2020-4" d="M231.46,36.12a.61.61,0,0,1-.45.18.65.65,0,0,1-.64-.64A.65.65,0,0,1,231,35a.65.65,0,0,1,.65.65A.63.63,0,0,1,231.46,36.12Zm-.83-.84a.54.54,0,0,0-.15.38.55.55,0,0,0,.53.53.51.51,0,0,0,.38-.16.51.51,0,0,0,.15-.37.54.54,0,0,0-.15-.38.53.53,0,0,0-.76,0Zm.1.73V35.3h.35l.14,0a.18.18,0,0,1,.09.17.14.14,0,0,1-.05.13.22.22,0,0,1-.12,0,.23.23,0,0,1,.1,0,.18.18,0,0,1,.06.16V36h-.18a.25.25,0,0,1,0-.1s0-.07,0-.08,0,0-.05-.06h-.14V36Zm.34-.57h-.15v.2H231l.1,0a.1.1,0,0,0,0-.09S231.11,35.46,231.07,35.44Z"></path><path class="cls-yum-brands-logos-2020-3" d="M194,65.44a1.57,1.57,0,0,0,0-.43c.09-1.26.1-2.52.07-3.78,0-.41,0-.82-.06-1.23a1.71,1.71,0,0,1,0-.45.72.72,0,0,1,.82-.63c.41,0,.82,0,1.23,0l1.13,0a1.22,1.22,0,0,1,.46.06.61.61,0,0,1,.42.42.74.74,0,0,1,0,.26c0,.77,0,1.54,0,2.31,0,.39,0,.78-.05,1.18a5.1,5.1,0,0,0,0,.68,5.47,5.47,0,0,1,0,1.07.47.47,0,0,0,.4.58,4,4,0,0,0,1-.06c.22,0,.33-.19.35-.45,0-.64,0-1.28,0-1.92,0-1.11,0-2.23,0-3.34a1.15,1.15,0,0,1,.06-.37.72.72,0,0,1,.74-.47,4.85,4.85,0,0,1,.85,0,3.66,3.66,0,0,0,.81,0,4,4,0,0,1,1,0,.81.81,0,0,1,.67.47A2,2,0,0,1,204,60c0,.51-.06,1-.08,1.53s0,1,0,1.55,0,1,0,1.45c0,1.22,0,2.45,0,3.67,0,.71-.06,1.42,0,2.12s0,1.64,0,2.46,0,1.43,0,2.15q0,.42.06.84a2.68,2.68,0,0,1,0,.8.74.74,0,0,1-.66.64,5.57,5.57,0,0,1-1,0,7.22,7.22,0,0,0-1.23,0,1.91,1.91,0,0,1-.79,0,.67.67,0,0,1-.45-.59,4,4,0,0,1,0-1.1c0-.8.11-1.61.07-2.42a17.89,17.89,0,0,1,.06-2.07,3.51,3.51,0,0,0-.1-1.07.42.42,0,0,0-.37-.39,2.6,2.6,0,0,0-1,0,.39.39,0,0,0-.34.41c0,.42-.06.83-.08,1.25a11.2,11.2,0,0,0,.1,1.3,11.78,11.78,0,0,1,0,1.68,10.9,10.9,0,0,0,0,1.4,6.75,6.75,0,0,1,0,1,.59.59,0,0,1-.46.59.93.93,0,0,1-.37,0,12.51,12.51,0,0,0-2,0,2.76,2.76,0,0,1-.81,0,.64.64,0,0,1-.44-.68c0-1.13,0-2.27,0-3.4,0-.25,0-.51,0-.76,0,0,0,0,0,0v-.82c0-.23,0-.47,0-.7,0-.41,0-.81,0-1.22,0-.71,0-1.41,0-2.12,0-.2,0-.4,0-.6Z"></path><path class="cls-yum-brands-logos-2020-3" d="M225.61,87.76h-2.55c-1.52,0-3,0-4.57,0-2.41,0-4.83,0-7.25,0h-2.4c-2.42,0-4.84,0-7.25,0h-2.38c-1.69,0-3.39,0-5.08,0-.06,0-.13,0-.12-.09s0-.08.09-.08l1.13,0c.82,0,1.65,0,2.47-.06h1.18c.49,0,1,0,1.45,0,.9,0,1.79,0,2.69,0l1.07,0a2.67,2.67,0,0,0,.4,0,4.12,4.12,0,0,0,.87-.16l-.55,0-2.18-.09c-.77,0-1.54,0-2.31,0s-1.59,0-2.39,0h-1.15c-.69,0-1.38,0-2.07,0a.5.5,0,0,1-.31-.06,1.9,1.9,0,0,1,.45-.07c.47,0,1-.08,1.42-.11l2.5-.11c.71,0,1.42,0,2.13,0,.31,0,.62,0,.93,0,.81,0,1.63.11,2.45.08a20.87,20.87,0,0,0-2.24-.11.13.13,0,0,0-.12,0h-.09a7.22,7.22,0,0,0-.93,0h-2.63a6.69,6.69,0,0,1-.77,0,.14.14,0,0,1,.13,0c.49,0,1,0,1.47,0q1.47,0,2.94,0t2.76.06c1,0,2,.07,2.94.07.62,0,1.25,0,1.88,0l2.22-.08,1.76,0,2.61,0c.68,0,1.36,0,2-.05s1.59,0,2.39-.09l2.15-.07c1.07,0,2.14,0,3.22,0,1.23,0,2.46,0,3.69.11.68,0,1.37,0,2.05.06s1.4,0,2.1.09c.32,0,.64,0,1,0,.07,0,.14,0,.19.08a9,9,0,0,0-1.37,0c-.46.06-.92.1-1.38.14a27.18,27.18,0,0,1,2.85.42l-.59,0-1.56-.11-2.2-.14h-.29a5.62,5.62,0,0,0-.92,0c.28,0,.55.06.82.06.53,0,1.05.11,1.57.19s1,.11,1.55.15l1.72.13c.07,0,.1,0,.1.1a1.77,1.77,0,0,0,0,.23h-4.83s-.09,0-.14,0h-4.7Zm-4.93-1.09c.37,0,.74-.06,1.12-.08l.77,0-.13,0c-.52,0-1,.06-1.54.12a.34.34,0,0,0-.22,0h-.21A.26.26,0,0,0,220.68,86.67Zm5.9,0-.27,0a.62.62,0,0,0,.27,0h.07s0,0,0,0H227c.75,0,1.51-.13,2.27-.14h.43a2.15,2.15,0,0,0-.43,0H229a7.27,7.27,0,0,0-1.32,0Zm-1.45,0v0l-.58,0a1.51,1.51,0,0,0,.37.06Zm-4.9,0a.33.33,0,0,0,.17,0A.33.33,0,0,0,220.23,86.71Z"></path><path class="cls-yum-brands-logos-2020-3" d="M208.18,56.57a.24.24,0,0,1,.11.26c0,.33,0,.67,0,1,0,0,0,.09,0,.1s.07,0,.09,0a1.06,1.06,0,0,1,1.33.1.85.85,0,0,1,.18.55c0,.39,0,.78,0,1.17s0,1,0,1.53v.62c0,.18-.06.25-.25.24h-.76c-.14,0-.18,0-.18-.18,0-.81,0-1.61,0-2.42,0-.14,0-.28,0-.42s-.06-.24-.19-.24a.25.25,0,0,0-.24.25c0,.51,0,1,0,1.52a10.46,10.46,0,0,0,0,1.12,1.36,1.36,0,0,1,0,.2.15.15,0,0,1-.16.18,7.3,7.3,0,0,0-.81,0c-.17,0-.23,0-.24-.23s0-.37,0-.55c0-.9,0-1.8,0-2.69,0-.33,0-.65,0-1s0-.55,0-.82a.29.29,0,0,1,.12-.29Z"></path><path class="cls-yum-brands-logos-2020-3" d="M237.48,76.73s0,0,0,.07a.62.62,0,0,1-.67.38A.62.62,0,0,1,236.7,76a.64.64,0,0,1,.73.34s0,.08,0,.09Zm-.63-.68a.51.51,0,0,0-.5.51.51.51,0,1,0,1,0A.51.51,0,0,0,236.85,76.05Z"></path><path class="cls-yum-brands-logos-2020-3" d="M215.94,77.58a.75.75,0,0,1-.48-.75c-.05-.85-.16-1.69-.26-2.53s-.28-2-.41-2.92c-.06-.45-.09-.91-.12-1.36s-.12-1-.19-1.45c-.12-.9-.27-1.8-.35-2.71s-.19-1.86-.31-2.79c-.09-.69-.16-1.38-.25-2.07,0-.31-.11-.62-.17-.93-.09-.5.16-.68.61-.72l1.14-.07c.33,0,.64-.13,1-.18a2.86,2.86,0,0,1,.51-.09.6.6,0,0,1,.63.44,3,3,0,0,1,.07.67c0,.28,0,.57.06.85.11.75.26,1.49.3,2.25,0,.08,0,.17.1.2a.22.22,0,0,0,.27-.06l.16-.13a2.78,2.78,0,0,1,1.65-.76,3.29,3.29,0,0,1,1.17,0,2.31,2.31,0,0,1,1.22.76l.11.13s0,0,.06,0h0s0,0,0,0h0a.06.06,0,0,0,0,0,7.3,7.3,0,0,1,1,2.22,20.45,20.45,0,0,1,.46,2.2,15.5,15.5,0,0,1,.21,2.15c0,.25,0,.5,0,.75.05.63.11,1.25.14,1.88a6.82,6.82,0,0,1-.06,1.43A3.84,3.84,0,0,1,223,76.44a2.78,2.78,0,0,1-1.65.68,3,3,0,0,1-1.15-.15,3.18,3.18,0,0,1-.61-.31c-.1-.06-.17,0-.2,0a1.06,1.06,0,0,0-.05.23c0,.21-.1.3-.3.33-.36.06-.72.06-1.07.1a11.35,11.35,0,0,0-1.32.21A1.21,1.21,0,0,1,215.94,77.58ZM219.37,73a.62.62,0,0,0,.84-.34,1.25,1.25,0,0,0,.1-.51c0-.43,0-.86-.06-1.3a21,21,0,0,0-.37-3,3.71,3.71,0,0,0-.31-1,.93.93,0,0,0-.35-.36.49.49,0,0,0-.74.15,1.51,1.51,0,0,0-.23,1.08l.09.86c0,.32,0,.63.08,1s.12.84.18,1.26a16.41,16.41,0,0,0,.32,1.7A.87.87,0,0,0,219.37,73Z"></path><path class="cls-yum-brands-logos-2020-3" d="M210.34,77.22c-.14,0-.28,0-.37-.15a2.83,2.83,0,0,0,0-.29c0-.1,0-.2-.11-.25s-.15,0-.21.1a2.4,2.4,0,0,1-1.13.63,3.84,3.84,0,0,1-1.07,0,2.84,2.84,0,0,1-1.38-.46s-.07-.07-.12,0h0s0,0-.05,0a3.34,3.34,0,0,1-.77-.94,6.08,6.08,0,0,1-.6-1.91,10.25,10.25,0,0,1-.12-2.14,7.85,7.85,0,0,1,.48-2.63,3.12,3.12,0,0,1,2.35-2,2.72,2.72,0,0,1,2,.29.4.4,0,0,0,.62-.42,2,2,0,0,0-.15-.6.8.8,0,0,0-.61-.47,4.54,4.54,0,0,0-1.56,0,2.77,2.77,0,0,0-1.06.35.68.68,0,0,1-.7.08l-.07-.05a.62.62,0,0,1-.37-.59,5,5,0,0,1,0-.55c0-.38,0-.75,0-1.12a.72.72,0,0,1,.53-.81,6,6,0,0,1,2.16-.44c.5,0,1,0,1.5,0a6.83,6.83,0,0,1,2.63.61A2.22,2.22,0,0,1,213,64a2.38,2.38,0,0,1,.24.51,5.29,5.29,0,0,1,.21,1.48c0,.39,0,.79,0,1.18s0,1.09,0,1.64,0,1.38,0,2.07c0,1.16,0,2.32,0,3.48a10.65,10.65,0,0,1,0,1.13c0,.37,0,.74,0,1.12a.52.52,0,0,1-.49.55,4.33,4.33,0,0,1-.72,0c-.36,0-.71,0-1.06,0S210.6,77.19,210.34,77.22Zm-.83-6.56h0a.68.68,0,0,0-1.13-.23,1.42,1.42,0,0,0-.39,1c0,.43,0,.86,0,1.28a2.47,2.47,0,0,0,.15.81.74.74,0,0,0,.42.46.71.71,0,0,0,.86-.25,1.12,1.12,0,0,0,.23-.68c0-.6,0-1.2,0-1.8a1.3,1.3,0,0,0-.14-.61Z"></path><path class="cls-yum-brands-logos-2020-3" d="M234.71,73.36c.37,0,.48,0,.62.39a1.58,1.58,0,0,1,0,.38c0,.39,0,.78,0,1.17s0,.84,0,1.27a.52.52,0,0,1-.56.53h-.17a7.93,7.93,0,0,0-1.09,0l-.52,0a4.39,4.39,0,0,1-1.2,0,3.66,3.66,0,0,1-.58-.22,1.84,1.84,0,0,1-.71-1.06,3.54,3.54,0,0,1-.13-1c0-.74,0-1.48,0-2.22,0-.94,0-1.89,0-2.84,0-.71,0-1.43,0-2.14,0-.08,0-.16,0-.24s0-.06,0-.09c0-.23-.07-.3-.3-.31H230c-.3,0-.37-.11-.4-.41s0-.62,0-.93V63.86c0-.24.12-.34.36-.34s.2,0,.3,0,.25-.09.23-.23c-.05-.55,0-1.09,0-1.63,0-.27-.05-.53-.07-.8a1.41,1.41,0,0,1,.13-.7.6.6,0,0,1,.59-.36c.44,0,.88,0,1.32,0s.75-.05,1.13,0a.64.64,0,0,1,.66.44,2.94,2.94,0,0,1,.05.51c0,.23,0,.45,0,.68a10.48,10.48,0,0,1,0,1.12,4.49,4.49,0,0,0,0,.82.15.15,0,0,0,.12.15l.27,0,.29,0a.41.41,0,0,1,.47.4c0,.38,0,.76,0,1.14s0,1,0,1.44,0,.58-.54.51h-.33a.26.26,0,0,0-.21.12.55.55,0,0,0-.07.28c0,.22,0,.44,0,.66,0,.74,0,1.48,0,2.22,0,.56,0,1.12,0,1.68,0,.33,0,.65,0,1A.38.38,0,0,0,234.71,73.36Z"></path><path class="cls-yum-brands-logos-2020-3" d="M225.35,77.1c-.41-.14-.45-.48-.45-.83s0-.77,0-1.16,0-.71,0-1.07c0-.78,0-1.56,0-2.34,0-.53,0-1,0-1.57s.05-1.26.07-1.88c0-.42,0-.84,0-1.26s0-1,0-1.57,0-1,0-1.54a5.48,5.48,0,0,1,0-.7.49.49,0,0,1,.24-.39,1,1,0,0,1,.55-.14l.83.05c.41,0,.82,0,1.23,0a4.14,4.14,0,0,1,.61,0,.52.52,0,0,1,.51.42,1.14,1.14,0,0,1,0,.37l-.06,1.19c0,.45,0,.91,0,1.36,0,.67,0,1.33,0,2s-.05,1.29-.05,1.94c0,.46,0,.92,0,1.38s0,.94,0,1.41-.05.93-.05,1.39c0,.31,0,.62,0,.93l0,.51a4.71,4.71,0,0,1,0,.92.64.64,0,0,1-.69.62,7.61,7.61,0,0,0-1.07,0l-.8,0A4.7,4.7,0,0,1,225.35,77.1Z"></path><path class="cls-yum-brands-logos-2020-3" d="M199.5,79.25a23.22,23.22,0,0,1-2.34-.25c-.83-.14-1.67-.21-2.51-.31l-.55-.06c-.12,0-.1-.08-.1-.15s.05-.08.11-.08h13.64c2.42,0,4.84,0,7.25,0h2.4c2.41,0,4.83,0,7.25,0h2.4c2.42,0,4.83,0,7.24,0h.88c.09,0,.12,0,.11.1v.27c0,.09,0,.11-.11.1l-1.65-.07c-.89,0-1.77-.06-2.66-.11-.73,0-1.46,0-2.19,0l-2.69,0c-.31,0-.61,0-.92,0a4.44,4.44,0,0,0-1.11.16,4.58,4.58,0,0,0,.62,0c.71,0,1.42.07,2.13.09l1.72,0,2.05,0c.54,0,1.07,0,1.61,0s.91,0,1.37,0h1.2a.4.4,0,0,1,.23.06,1.33,1.33,0,0,1-.38.07c-.45,0-.89.08-1.34.1l-2.6.12-1.17,0h-1.22c-1,0-2.1-.14-3.15-.09,1,.1,2.1.11,3.16.11h2.51l1,0h0v0l-.27,0c-.89,0-1.78,0-2.67.06h-1.73c-1,0-2,0-3.06-.08-.52,0-1,0-1.54,0-.76,0-1.53,0-2.29,0s-1.67.06-2.5.08l-1.68,0-2.59,0-2.12,0c-.86,0-1.72.06-2.58.09l-2,.08c-1.33,0-2.66,0-4,0-1.05,0-2.1-.05-3.15-.11-.42,0-.84,0-1.26,0-.91,0-1.83,0-2.75-.1-.33,0-.67,0-1,0-.11,0-.22,0-.31-.1a24.5,24.5,0,0,0,2.57.06l-1-.06c-.59,0-1.18-.08-1.77-.14-.11,0-.07-.09-.08-.14s0-.09.08-.08l1.62,0,1.36,0,2.31,0h.13a.69.69,0,0,0,.32,0C199.71,79.29,199.61,79.23,199.5,79.25Zm5.3.29s.11,0,.16,0h-.16a1.79,1.79,0,0,0-.69,0C204.34,79.5,204.57,79.55,204.8,79.54Zm4,0c-.37,0-.74.06-1.11.09l-.71,0a.16.16,0,0,0,.1,0,14.54,14.54,0,0,0,1.47-.11c.08,0,.17,0,.25,0a1.17,1.17,0,0,0,.41,0A1.39,1.39,0,0,0,208.79,79.51Zm-5.89,0c-1,0-2,.15-2.92.17A7.58,7.58,0,0,0,202.9,79.51Z"></path><path class="cls-yum-brands-logos-2020-3" d="M217.1,82.11a4.59,4.59,0,0,1,0,.74,1.36,1.36,0,0,1-.48.79c-.06,0-.09.1-.05.16.24.4.36.86.57,1.27a.5.5,0,0,1,.08.2.2.2,0,0,1-.16.26.49.49,0,0,1-.24,0,3.75,3.75,0,0,0-.67,0c-.17,0-.21,0-.25-.19a3.1,3.1,0,0,0-.24-.64,2,2,0,0,1-.17-.48.61.61,0,0,0,0-.12.12.12,0,0,0-.15-.07c-.07,0-.08.06-.09.11a5.27,5.27,0,0,0,0,.89c0,.09,0,.18,0,.27a.22.22,0,0,1-.24.24h-.18a4,4,0,0,0-.6,0,.19.19,0,0,1-.22-.16,1.45,1.45,0,0,1,0-.36c0-1,0-2,0-3,0-.4,0-.8,0-1.2,0-.18.06-.25.23-.26l1.16,0a2.84,2.84,0,0,1,.77,0,1.23,1.23,0,0,1,.91,1.08C217.09,81.78,217.09,81.94,217.1,82.11Zm-1.92.35a1.27,1.27,0,0,0,0,.28.18.18,0,0,0,.12.12c.18.07.52,0,.52-.31a4.42,4.42,0,0,0,0-.63c0-.33-.2-.37-.5-.35a.16.16,0,0,0-.15.18A5.61,5.61,0,0,1,215.18,82.46Z"></path><path class="cls-yum-brands-logos-2020-3" d="M203.28,84.88c0-.78,0-1.58,0-2.38,0-.58,0-1.16,0-1.74,0-.14.07-.19.21-.21a2.29,2.29,0,0,1,.37,0l1.23,0a1.2,1.2,0,0,1,1.24,1.06c0,.33,0,.66,0,1a1.3,1.3,0,0,1-.52,1.1.11.11,0,0,0,0,.16,7.91,7.91,0,0,1,.41.89l.21.45c.11.24,0,.41-.25.4s-.55,0-.82,0a.19.19,0,0,1-.21-.15,5.18,5.18,0,0,0-.34-.9c0-.09-.06-.2-.1-.3s0-.17-.16-.16-.1.12-.11.19a5.87,5.87,0,0,0,0,.94.34.34,0,0,0,0,.1c0,.2-.08.3-.28.29a4.33,4.33,0,0,0-.72,0c-.17,0-.25-.06-.25-.23S203.28,85.05,203.28,84.88Zm1.21-2.51a1,1,0,0,0,0,.35.18.18,0,0,0,.13.15.4.4,0,0,0,.52-.37c0-.17,0-.35,0-.52,0-.32-.15-.44-.47-.41-.14,0-.2.06-.18.21A5.79,5.79,0,0,1,204.49,82.37Z"></path><path class="cls-yum-brands-logos-2020-3" d="M222.88,84.86c0-.79,0-1.58,0-2.37,0-.54,0-1.08,0-1.62,0-.26.06-.33.32-.33.52,0,1.05,0,1.57,0A1.2,1.2,0,0,1,226,81.62c0,.29,0,.59,0,.88a1.31,1.31,0,0,1-.51,1.14s-.09.09,0,.16a11.06,11.06,0,0,1,.5,1.11,2.92,2.92,0,0,1,.14.31c.06.18,0,.28-.18.32a.69.69,0,0,1-.2,0,3.86,3.86,0,0,0-.68,0c-.17,0-.21,0-.25-.2a3.2,3.2,0,0,0-.18-.52,3.41,3.41,0,0,1-.24-.6.21.21,0,0,0,0-.11.14.14,0,0,0-.14-.08.1.1,0,0,0-.09.11,2.44,2.44,0,0,0,0,.27c0,.28,0,.56,0,.84s-.07.31-.3.3a2.83,2.83,0,0,0-.65,0c-.26,0-.29-.09-.3-.33v-.39Zm1.86-2.62a2.62,2.62,0,0,0,0-.28c0-.34-.18-.42-.51-.38a.12.12,0,0,0-.14.13v.92a.24.24,0,0,0,.12.22.42.42,0,0,0,.54-.23A1.61,1.61,0,0,0,224.74,82.24Z"></path><path class="cls-yum-brands-logos-2020-3" d="M198.45,82.82a1.29,1.29,0,0,1,.5,1.12,2.58,2.58,0,0,1-.09.83,1.11,1.11,0,0,1-1.09.79c-.43,0-.85,0-1.28,0h-.3c-.19,0-.24-.07-.24-.27s0-.64,0-1c0-.51,0-1,0-1.51a2.62,2.62,0,0,0,0-.28c0-.54,0-1.08,0-1.63,0-.26.08-.35.34-.34.49,0,1,0,1.47,0a1,1,0,0,1,1,.5,1.54,1.54,0,0,1,.15.9A1.09,1.09,0,0,1,198.45,82.82Zm-1.29,1.12c0,.12,0,.23,0,.35s.11.26.3.2a.28.28,0,0,0,.2-.27,3.17,3.17,0,0,0,0-.44.33.33,0,0,0-.26-.33.19.19,0,0,0-.26.17C197.15,83.72,197.16,83.83,197.16,83.94Zm0-2h0v.22c0,.16.07.21.22.17a.33.33,0,0,0,.26-.33c0-.24-.06-.41-.21-.47s-.27,0-.27.18Z"></path><path class="cls-yum-brands-logos-2020-3" d="M201.33,82.68c0-.67,0-1.3,0-1.93a.17.17,0,0,1,.15-.2h.82c.19,0,.28.08.28.24,0,.56,0,1.11,0,1.67s0,1.31,0,2a1,1,0,0,1-.3.75,1.44,1.44,0,0,1-.91.45,2.8,2.8,0,0,1-1-.07,1.08,1.08,0,0,1-.79-1.05c0-.54,0-1.07,0-1.61,0-.39,0-.78,0-1.18s0-.51,0-.76a.5.5,0,0,1,0-.21.2.2,0,0,1,.22-.18h.78c.18,0,.25.07.25.24,0,.68,0,1.36,0,2,0,.47,0,1,0,1.43,0,.15.09.22.25.23s.31-.06.33-.2a4.28,4.28,0,0,0,0-.62C201.31,83.33,201.31,83,201.33,82.68Z"></path><path class="cls-yum-brands-logos-2020-3" d="M209.24,82.36h.52c.18,0,.24,0,.27.22a.38.38,0,0,1,0,.15c0,.64,0,1.28,0,1.92,0,.2,0,.39,0,.58a.28.28,0,0,1-.22.31,1.55,1.55,0,0,1-.31.06,5,5,0,0,1-1.33-.07,1.57,1.57,0,0,1-1.12-1.08,3.61,3.61,0,0,1-.18-1.42,4.72,4.72,0,0,1,.11-.92,2.45,2.45,0,0,1,.51-1,1.87,1.87,0,0,1,1.06-.56,2.86,2.86,0,0,1,1.13,0c.17,0,.22.08.23.25a4.58,4.58,0,0,1,0,.64c0,.22-.15.31-.36.25a1.62,1.62,0,0,0-.69,0,.92.92,0,0,0-.7.82,7.37,7.37,0,0,0,0,1,1.94,1.94,0,0,0,.15.63.4.4,0,0,0,.33.28.19.19,0,0,0,.24-.18c0-.23,0-.45,0-.68s-.06-.13-.16-.13-.18,0-.18-.18a5.61,5.61,0,0,1,0-.71c0-.19.06-.23.25-.23s.32,0,.48,0Z"></path><path class="cls-yum-brands-logos-2020-3" d="M221.39,82.36h.5c.2,0,.28.06.29.26s0,.57,0,.85,0,.82,0,1.23c0,.17,0,.34,0,.52s0,.25-.23.32a1.36,1.36,0,0,1-.29.06,5.11,5.11,0,0,1-1.35-.07,1.57,1.57,0,0,1-1.14-1.18,3.69,3.69,0,0,1-.14-1.48,3.33,3.33,0,0,1,.22-1.12,1.85,1.85,0,0,1,1.47-1.17,3.19,3.19,0,0,1,1.11,0c.17,0,.23.1.23.27s0,.42,0,.63a.25.25,0,0,1-.35.24,1.6,1.6,0,0,0-.69,0,.89.89,0,0,0-.7.76,5.52,5.52,0,0,0,0,1.22,1.49,1.49,0,0,0,.17.58.4.4,0,0,0,.31.22.17.17,0,0,0,.22-.17,4.24,4.24,0,0,0,0-.71c0-.09-.07-.11-.15-.11s-.19,0-.19-.19V82.6c0-.19.06-.24.25-.24s.32,0,.48,0Z"></path><path class="cls-yum-brands-logos-2020-3" d="M210.72,84.86c0-.5,0-1,0-1.43s0-1,0-1.46,0-.74,0-1.11a.25.25,0,0,1,.27-.28h2c.2,0,.29.07.29.27a4.86,4.86,0,0,1,0,.54c0,.22-.1.29-.33.28h-.54a2.61,2.61,0,0,0-.28,0,.17.17,0,0,0-.17.17c0,.14,0,.27,0,.41s.07.18.21.18h.77c.28,0,.34.07.34.34s0,.32,0,.48a.27.27,0,0,1-.31.3c-.2,0-.41,0-.61,0h0c-.28,0-.37,0-.33.34,0,.12,0,.24,0,.36s.07.21.23.21.57,0,.85,0,.33.09.33.35,0,.33,0,.5-.1.31-.31.31c-.41,0-.82,0-1.23,0s-.54,0-.8,0-.31-.09-.31-.32Z"></path><path class="cls-yum-brands-logos-2020-3" d="M225.51,61.44a.44.44,0,0,1-.38-.32,1.89,1.89,0,0,1-.08-.53c0-.38,0-.75,0-1.13s.13-.74.7-.74c.42,0,.84.06,1.26.05s.87,0,1.3,0,.46,0,.6.38a2.1,2.1,0,0,1,0,.5c0,.17,0,.33,0,.5s0,.49.05.73a.47.47,0,0,1-.39.52.75.75,0,0,1-.21,0c-.42,0-.83,0-1.24,0Z"></path><path class="cls-yum-brands-logos-2020-3" d="M212.84,61.43c0,.1,0,.21,0,.31a.25.25,0,0,1-.16.25,1.7,1.7,0,0,1-.56.13,2.43,2.43,0,0,1-1-.08,1.35,1.35,0,0,1-.91-1.13,6,6,0,0,1,0-1.47,5.1,5.1,0,0,1,.08-.67,1.33,1.33,0,0,1,2.62,0,5.62,5.62,0,0,1,0,1.16.42.42,0,0,1-.07.31.26.26,0,0,1-.24.12c-.38,0-.75,0-1.13,0-.14,0-.21.1-.17.25a.5.5,0,0,0,.48.4,1.06,1.06,0,0,0,.63-.11.43.43,0,0,1,.18-.06.21.21,0,0,1,.25.22v.32Zm-1.54-2.2v.15s0,.1.07.11a.82.82,0,0,0,.38,0,.14.14,0,0,0,.1-.14,1.29,1.29,0,0,0,0-.44.24.24,0,0,0-.23-.22.24.24,0,0,0-.27.19A.9.9,0,0,0,211.3,59.23Z"></path><path class="cls-yum-brands-logos-2020-3" d="M232.45,85.56a7.85,7.85,0,0,0-.83,0c-.22,0-.33-.08-.33-.3,0-.53,0-1.06,0-1.59,0-.28,0-.57,0-.86,0-.55,0-1.11,0-1.66,0-.14,0-.28,0-.42s.05-.2.2-.19a4.07,4.07,0,0,0,.78,0c.22,0,.28,0,.26.27-.05.58,0,1.17,0,1.76s0,1,0,1.49v.07c0,.27.09.34.36.33l.3,0q.33-.06.33.27c0,.19,0,.38,0,.58s-.09.25-.27.25Z"></path><path class="cls-yum-brands-logos-2020-3" d="M229.85,85.56a7.85,7.85,0,0,0-.83,0,.28.28,0,0,1-.33-.3c0-.12,0-.23,0-.34,0-.72,0-1.44,0-2.16,0-.52,0-1,0-1.56a2.68,2.68,0,0,0,0-.4c0-.2,0-.27.23-.25a4.69,4.69,0,0,0,.75,0c.21,0,.28,0,.27.26,0,.49,0,1,0,1.46s0,1.21,0,1.82v.12c0,.2.1.26.29.26a2.56,2.56,0,0,0,.39,0c.2,0,.31.06.31.27v.59a.23.23,0,0,1-.25.25Z"></path><path class="cls-yum-brands-logos-2020-3" d="M205.46,60.11v-.89c0-.11,0-.17-.14-.16s-.14-.05-.13-.14c0-.27,0-.53,0-.8,0-.09.05-.11.12-.1s.14,0,.14-.14,0-.44,0-.66.08-.32.3-.32h.61c.2,0,.26.05.26.25s0,.46,0,.69,0,.17.17.17.19,0,.18.16,0,.48,0,.71,0,.18-.19.17-.15,0-.15.15v1.58c0,.11,0,.18.16.17s.15.07.15.16q0,.41,0,.81c0,.09,0,.16-.15.15-.25,0-.49,0-.73,0a.53.53,0,0,1-.59-.53c0-.39,0-.77,0-1.16v-.3Z"></path><path class="cls-yum-brands-logos-2020-3" d="M227.38,80.57h.4c.16,0,.23.07.21.22a16.32,16.32,0,0,0,0,1.85c0,.42,0,.85,0,1.27s0,.74,0,1.1c0,.1,0,.2,0,.3s-.06.26-.24.26h-.78c-.18,0-.24,0-.24-.23q0-.93,0-1.86c0-.39,0-.78,0-1.17s0-1,0-1.45c0-.25.05-.31.3-.3s.24,0,.35,0Z"></path><path class="cls-yum-brands-logos-2020-3" d="M222.42,63.44s0,0-.06,0S222.41,63.41,222.42,63.44Z"></path><path class="cls-yum-brands-logos-2020-3" d="M205.88,76.73s.06,0,.05,0S205.89,76.75,205.88,76.73Z"></path><path class="cls-yum-brands-logos-2020-3" d="M222.45,63.48s0,0,0,0S222.47,63.45,222.45,63.48Z"></path><path class="cls-yum-brands-logos-2020-3" d="M209.53,70.68s0,0,0,0Z"></path><path class="cls-yum-brands-logos-2020-3" d="M237,76.62l.19.29c-.09,0-.14,0-.17-.06l-.11-.19a.11.11,0,0,0-.11,0c-.06,0,0,.06,0,.09v.17s0,.06-.06.06-.06,0-.06-.07v-.6c0-.05,0-.06.07-.06h.21c.16,0,.23,0,.25.16S237.12,76.55,237,76.62Zm-.14-.1c.09,0,.19,0,.19-.11s-.11-.1-.2-.11-.08,0-.09.11S236.76,76.53,236.83,76.52Z"></path><path class="cls-yum-brands-logos-2020-2" d="M142.55,39A1.58,1.58,0,0,1,141,37.51L138.24,2.75a1.52,1.52,0,0,1,.41-1.18,1.55,1.55,0,0,1,1.14-.51h34.76a1.56,1.56,0,0,1,1.15.51,1.52,1.52,0,0,1,.41,1.18l-2.76,34.76A1.57,1.57,0,0,1,171.8,39Z"></path><path class="cls-yum-brands-logos-2020-3" d="M174.55.83H139.79a1.79,1.79,0,0,0-1.32.58A1.82,1.82,0,0,0,138,2.77l2.76,34.76a1.8,1.8,0,0,0,1.79,1.65H171.8a1.8,1.8,0,0,0,1.79-1.65l2.75-34.76A1.8,1.8,0,0,0,174.55.83m0,.47a1.33,1.33,0,0,1,1.33,1.43l-2.76,34.76a1.34,1.34,0,0,1-1.32,1.23H142.55a1.33,1.33,0,0,1-1.32-1.23L138.47,2.73a1.33,1.33,0,0,1,1.32-1.43Z"></path><path class="cls-yum-brands-logos-2020-5" d="M147.82,2.29h-7.7a.64.64,0,0,0-.64.69l2,24.82h6.37Z"></path><path class="cls-yum-brands-logos-2020-5" d="M172.9,27.8l2-24.82a.65.65,0,0,0-.65-.69h-7.69V27.8Z"></path><path class="cls-yum-brands-logos-2020-3" d="M152.73,18.2a4.1,4.1,0,0,0,1.9,2.95c.67.5,1,.72,1.07.78h0s-.24,0-.32,0a5.22,5.22,0,0,0-.9,0c-.31,0-.27.13-.3.35s0,.46,0,.7,0,.41.08.53.17.13.59.1,1.53,0,1.66-.05.15,0,.05.24a33.45,33.45,0,0,1-1.6,3.65c-.12.23.22.12.51.26.53.25.51.33.65.06a21.61,21.61,0,0,0,1-2.63c0-.07.05-.13.06,0s0,2.34,0,3.06a.14.14,0,0,0,0,.1.23.23,0,0,0,.14.07h0a1.9,1.9,0,0,1,.85-.11h.07l0-.05a.56.56,0,0,0,0-.12h0l0-.18a.37.37,0,0,1,0-.11v-.14a1,1,0,0,0,0-.17V27.1c0-.08,0-.05,0-.13a2.17,2.17,0,0,0,0-.26c0-.09,0-.18,0-.27s0-.19,0-.28,0-.2,0-.29l0-.3,0-.29c0-.1,0-.2,0-.3s0-.19-.05-.28l0-.23-.06-.27c0-.09-.05-.17-.07-.26l-.06-.2a.22.22,0,0,1,0-.11s0,0,.09,0h0a5.42,5.42,0,0,1,.91,0l.84.07c.16,0,.35,0,.34-.43v-.61a.22.22,0,0,1,0-.08v-.12h0v-.05a.34.34,0,0,0-.23-.39,3.91,3.91,0,0,0-1.12-.05c-.05,0-.07,0-.05,0h0a8.45,8.45,0,0,0,1.35-1,5.06,5.06,0,0,0,1.32-1.5,7.18,7.18,0,0,0,.77-2.9c0-.27,0-.25.2-.24a.71.71,0,0,0,.34-.08c.35-.08.65-1.25.65-1.25s.51-1.78.64-2.51.08-1-.31-1.22l-.07,0a.08.08,0,0,1,0-.09.19.19,0,0,1,0-.08,6.55,6.55,0,0,0,.46-1.87.22.22,0,0,0-.13-.15,1,1,0,0,1-.24-.32.11.11,0,0,0,0,0,6.73,6.73,0,0,0-1.9-4.24l-.14-.13c-.12-.11-.26-.23-.43-.36A7.2,7.2,0,0,0,160,3.14a7.23,7.23,0,0,0-1.14-.38l-.18,0-.42-.07a6.17,6.17,0,0,0-1.31-.07h-.32l-.36,0-.6.11L155,2.9l-.34.1-.09,0-.37.13-.55.23-.16.07c-.26.08-.32.24-.33.32a.75.75,0,0,1,0,.16,1.84,1.84,0,0,1-1.66.92c-.09,0-.17,0-.14.11a1.63,1.63,0,0,0,.76.75s-.23.09-.27.1a3.27,3.27,0,0,1-.56,0h0a.72.72,0,0,0-.68.53.16.16,0,0,0,0,.15,2.76,2.76,0,0,1,.31.51h0l.06.19a.47.47,0,0,1,0,.37c-.17.32-.58.42-.65.74a3.68,3.68,0,0,0,.25,1.51,11.54,11.54,0,0,0,.33,1.29,0,0,0,0,1,0,0l-.12,0c-.25.09-.32.28-.35.65-.06.82.55,2.09.73,3.17a2.31,2.31,0,0,0,.52,1.19.57.57,0,0,0,.28.11c.22,0,.31-.1.33.12a2.32,2.32,0,0,0,0,.24,4.08,4.08,0,0,0,.45,1.55m.38-13a1.2,1.2,0,0,1,.28-.26,4.61,4.61,0,0,1,1.27-.7l.19-.07c.09,0,.16-.2,0-.22a1.06,1.06,0,0,0-.35,0c-.09,0-.14-.05-.07-.13a1.13,1.13,0,0,1,.43-.24,7.14,7.14,0,0,1,1.77-.34,3.8,3.8,0,0,1,.94,0,3.76,3.76,0,0,1,.7.11,6.91,6.91,0,0,1,1.94.73,9.19,9.19,0,0,1,.94.65c.9.69,1.93,2,1.78,4.82a3.18,3.18,0,0,1-.08.59c0,.08-.13.22-.19,0a9.47,9.47,0,0,0-1-2.49c-.08-.11-.2-.1-.18,0s0,.58,0,.69c-.09.68.12.42.43,1.15a4.58,4.58,0,0,1,.26,1c0,.08,0,.16,0,.24s0,.11,0,.11c-.22,0-.59-.1-.79-.11s-1.8,0-2.39,0a2,2,0,0,0-1.25.53,1,1,0,0,1-.18.11.09.09,0,0,1-.07,0l-.14,0a.89.89,0,0,0-.46,0,.38.38,0,0,1-.36,0,2.32,2.32,0,0,0-1.72-.65c-.66,0-1.52,0-2,0l-.29,0a.15.15,0,0,1,0-.06c0-.92.6-.72.67-1,.17-.6.21-2.05,1.26-2.94a1.56,1.56,0,0,1,1.23-.44,3,3,0,0,1,1.25.26c.19.09.29.16.37.1l.37-.31c.09-.07.06-.17,0-.24a3.73,3.73,0,0,0-2-1.19,4.3,4.3,0,0,0-.69-.08,2.28,2.28,0,0,0-.54,0,6,6,0,0,0-1.38.44s.06-.14.08-.18m9,6c-.05,0-.09,0-.19,0a.7.7,0,0,1-.19.06.15.15,0,0,1-.11-.23c.09-.14.22,0,.32,0s.09,0,.14,0a.08.08,0,0,1,0,.12m-1.57.46a1.28,1.28,0,0,1-.27-.25c0-.06,0-.11.06-.11a1.3,1.3,0,0,1,.74.11.33.33,0,0,1,.05.37c-.05.14-.17.1-.23.09a2,2,0,0,1-.35-.21m.14.56a.61.61,0,0,1-.34-.08,2,2,0,0,1-.38-.26.84.84,0,0,0-.5-.13,2.21,2.21,0,0,0-.4.07c-.11,0-.12-.07-.09-.11a1.14,1.14,0,0,1,.53-.27h.19a.81.81,0,0,1,.43.22,3.74,3.74,0,0,0,.5.41c.06,0,.2.08.06.15m-4.81,2.34a.36.36,0,0,1,0,.22c0,.05-.21.12-.37-.12a.58.58,0,0,1,0-.64c.15-.19.39,0,.35,0a.68.68,0,0,0,0,.52m-2.22-2.66s0,0,.18-.11l.31-.18a1.86,1.86,0,0,1,.7-.25.61.61,0,0,1,.41.16c.11.12.14.26,0,.23a1.28,1.28,0,0,0-.56,0A3.55,3.55,0,0,0,154,12a.74.74,0,0,1-.35.08s-.18-.07,0-.18m-.2-.27-.39.26a.16.16,0,0,1-.26-.18.54.54,0,0,1,.37-.35l.22,0,.26,0c.15,0,.17.11.07.17l-.27.16m-2.39-3a3.17,3.17,0,0,1,.51-.84.71.71,0,0,0,0-.65,3.07,3.07,0,0,0-.2-.47.17.17,0,0,1,0-.1h0l.27,0a5.43,5.43,0,0,0,1.69-.49,1.64,1.64,0,0,1,.33-.14,1.82,1.82,0,0,1,.4-.11l.33,0c.15,0,.4.09.35.12a3,3,0,0,0-1.29.86,3.9,3.9,0,0,0-.51.82,1.75,1.75,0,0,1-.36.36,1,1,0,0,0-.32.42,7.34,7.34,0,0,0-.41,2.23c0,.14,0,.29-.17.35h0c-.11,0-.2.12-.22,0-.07-.27-.24-.86-.31-1.23,0-.11,0-.23-.07-.34a1.45,1.45,0,0,1-.05-.75m.66,5.82c-.22-.15-.21-.35-.27-.54-.12-.41-.25-.9-.36-1.32-.07-.25-.09-.85.25-.85a.33.33,0,0,1,.36.22c.12.36-.11.3,0,.73s.1.6.2,1.12c0,.23.12.8-.09.67m.82-3.2c-.07,0-.13,0-.2-.05s-.15,0-.18,0,0-.1,0-.12.09,0,.14,0,.23-.14.32,0a.15.15,0,0,1-.1.23m.16,2.5c0-.14,0-.34.35-.14a1.48,1.48,0,0,0,.36.15.15.15,0,0,0,.2-.08c0-.08.11-.22,0-.29a1,1,0,0,1-.69-.62.2.2,0,0,1,.08-.21.18.18,0,0,1,.19.05.73.73,0,0,0,.33.2c.11,0,.13,0,.15-.07a1,1,0,0,1,.94-.44c.24,0,.46.08.53.09a1.77,1.77,0,0,0,.37,0c.17,0,.42-.08.3.06s-.19.17-.1.29v0a.31.31,0,0,1,0,.38h0a1.19,1.19,0,0,1-.92.39c-.24,0-.26,0-.26.14a.24.24,0,0,0,0,.12c0,.07.06.1.23.11a2.75,2.75,0,0,0,.35,0c.06,0,.12,0,.09.06l0,0a.81.81,0,0,0-.17.39.25.25,0,0,1-.11.17h0a2.43,2.43,0,0,0-.64.31c-.25.21-.77.38-1,.13a3.33,3.33,0,0,1-.51-1.24m2.34,5.95c-.44,0-1.61-.69-2.11-2.69a.89.89,0,0,1,.39-1l.22-.06a.22.22,0,0,1,.24.23,5.72,5.72,0,0,0,.55,2.29c.1.14.19.14.24,0s.11-.26.13-.32.16-.26.21-.09a12.25,12.25,0,0,0,.4,1.3c.15.32-.1.31-.27.32m.28-3.23a1.2,1.2,0,0,1-.89-.29c0-.07,0-.11.09-.13a2.17,2.17,0,0,0,.48-.25l.51-.33c.07,0,.44-.2.66,0a1.68,1.68,0,0,0,1.19.35c.36,0,.36-.32.65-.41a1.15,1.15,0,0,0,.4-.2.27.27,0,0,1,.3.06c.15.14.2.25.37.44a1.33,1.33,0,0,0,.57.4c.08,0,.14.08.14.11s0,.11-.27.17a3.41,3.41,0,0,1-2.07-.09.77.77,0,0,0-.68,0,4.36,4.36,0,0,1-1.45.21m2.94.48a3.41,3.41,0,0,1-.71.15l-.89.05a.75.75,0,0,1-.42-.19s-.06-.11.05-.12a8,8,0,0,1,1.75,0l.22,0s.13.05,0,.1m5.1-4.62c-.15.84-.33,1.26-.44,1.78s-.35,1.32-.57,1.34-.32-.2-.47,0-.15.26-.23.36a.77.77,0,0,0-.1.29,5.9,5.9,0,0,1-.14,1.28,4.66,4.66,0,0,1-1,2.11,3.19,3.19,0,0,1-1.51,1,.46.46,0,0,1-.31,0,1,1,0,0,1-.19-.18c-.09-.09-.13,0-.13.08a1.39,1.39,0,0,1,0,.61c-.22.4-.44.43-.56.92,0,.16,0,.41-.2.3a3.1,3.1,0,0,1-1.32-1.74,1.77,1.77,0,0,1,.14-.88,3.05,3.05,0,0,0,.13-.68c0-.27-.11-.51,0-.53s.29.47.38.42,0-.65,0-.65a.51.51,0,0,0-.36-.22c-.16,0-.21-.16,0-.25a.79.79,0,0,1,.46-.12,3.53,3.53,0,0,0,2-.2c.09,0,.15,0,.22,0s.27.14.31.24,0,.49.06.79.28,0,.33-.09a2.68,2.68,0,0,0,.11-.48,1.19,1.19,0,0,1,.19-.47,1.08,1.08,0,0,0,.32-.51,2.22,2.22,0,0,0,.09-.79c0-.42-.09-.46-.19-.55a2.87,2.87,0,0,1-.47-.31,6.32,6.32,0,0,1-.58-.75,1.44,1.44,0,0,0-.75-.52c-.3-.07-.18.22-.16.3s.09.31,0,.39a1.74,1.74,0,0,1-1.28.36c-.67-.18-.9-.55-.91-.9a1.64,1.64,0,0,1,.26-.79,2.32,2.32,0,0,0,.16-.73,3.29,3.29,0,0,1,.14-.64.26.26,0,0,1,.29-.16.32.32,0,0,1,.33.25c.11.54.3.67.37.71s.18,0,.23-.07.17-.15.13-.22a.66.66,0,0,1-.1-.22c0-.1.1-.09.13-.07a1.52,1.52,0,0,0,.77.24c.63.1.72-.13,1.15-.05a.3.3,0,0,1,.2.12c0,.05.08.18.13.2a1.64,1.64,0,0,0,.25,0c.09,0,.25,0,.23.18-.07.45-.6.58-.84.62l-.17,0a.26.26,0,0,0,0,.28c0,.07.24.07.51,0a1.1,1.1,0,0,0,.77-.53,4.35,4.35,0,0,0,.38-1.28c0-.14.08-.39.16-.44a1.86,1.86,0,0,1,.5-.15c.07,0,.11,0,.14.18a10.71,10.71,0,0,1,0,1.14c0,.14.07.13.11.12a.78.78,0,0,0,.37-.37c0-.13-.07-.33,0-.51s.18-.36.24-.35c.36,0,.43.19.34.65m5,17.56a.2.2,0,0,1,.14.24l-.37,1.67A.18.18,0,0,1,168,32h-.53a.17.17,0,0,1-.17-.19v0c0-.54-.32-1-1.1-1a2.48,2.48,0,0,0-2.36,2.46,2,2,0,0,0,2.28,2.28,5.43,5.43,0,0,0,1.6-.24.17.17,0,0,1,.22.2l-.16.86a.21.21,0,0,1-.14.16,8,8,0,0,1-2.32.3c-2.92,0-4.1-1.67-3.92-3.38.17-1.53,1.17-3.77,5.15-3.77a6.94,6.94,0,0,1,1.85.25m-16.45,0a.19.19,0,0,1,.18-.14H155a.17.17,0,0,1,.17.21l-.1.44a.15.15,0,0,1-.15.13h0a1.93,1.93,0,0,0-.93.35l-2.38,2h0l1.83,2.48c.36.46.53.54.89.55a.18.18,0,0,1,.18.22l-.1.45a.17.17,0,0,1-.17.13h-1.43c-1.58,0-2-.69-3.33-3.1h0l-.38,1.76a.43.43,0,0,0,.34.48h0a.19.19,0,0,1,.11.2l-.12.52a.17.17,0,0,1-.17.13H146a.17.17,0,0,1-.17-.22l.09-.44a.2.2,0,0,1,.17-.15h0c.3,0,.62-.22.82-1.16l.75-3.44a.55.55,0,0,0-.33-.71h0a.19.19,0,0,1-.12-.22l.1-.46a.2.2,0,0,1,.19-.14h3.15a.17.17,0,0,1,.17.2l-.1.46a.23.23,0,0,1-.13.14h0a.66.66,0,0,0-.45.47L149.62,33h0l2.44-2a.19.19,0,0,0-.05-.35h0a.19.19,0,0,1-.13-.22l.1-.44m8.82,1.91a.18.18,0,0,1-.18-.19v0c0-.43-.12-.69-.61-.69h-1.52l-.4,1.84h2.17a.17.17,0,0,1,.17.21l-.22.95a.16.16,0,0,1-.17.14H157.8l-.26,1.17a.55.55,0,0,0,.34.64h0a.18.18,0,0,1,.1.19l-.12.52a.17.17,0,0,1-.17.13h-2.63a.17.17,0,0,1-.17-.21l1.15-5.2a.55.55,0,0,0-.35-.72h0a.18.18,0,0,1-.12-.21l.11-.46a.18.18,0,0,1,.18-.14h5.86a.17.17,0,0,1,.17.21l-.37,1.71a.17.17,0,0,1-.17.13h-.56"></path><path class="cls-yum-brands-logos-2020-3" d="M174.74,38.49v.64h-.1v-.64h-.21V38.4h.51v.09Zm.88.64V38.6l-.18.35h-.09l-.18-.35v.53h-.1V38.4h.1l.22.45.23-.45h.1v.73Z"></path></svg>