<svg xmlns="http://www.w3.org/2000/svg" width="20px" height="20px" viewBox="0 0 20 20" fill="#383d4c">
    <path fill-rule="evenodd" d="M1.439 3.171c.276-.185.624-.223.933-.1l4.66 1.864 2.47-.823-.002.048c0 .584.165 1.24.426 1.92L8 6.72v9.892l4-1.333V9.753c.737 1.046 1.479 1.958 1.977 2.542l.023.028v3l3 1.2v-4.2l.023-.028c.498-.584 1.24-1.496 1.977-2.543V18c0 .332-.165.641-.439.828-.168.113-.364.172-.561.172-.125 0-.251-.024-.372-.072l-4.66-1.864-5.652 1.884-.011.002c-.099.031-.201.05-.305.05-.125 0-.251-.024-.372-.072l-5-2C1.249 16.776 1 16.41 1 16V4c0-.332.165-.642.439-.829zM3 5.476v9.847l3 1.2V6.676l-3-1.2zM15.5 0c2.209 0 4 1.852 4 4.132v.028c0 2.139-4 6.84-4 6.84s-4-4.701-4-6.84v-.028c0-2.28 1.791-4.132 4-4.132zm0 2.5c-.829 0-1.5.672-1.5 1.5s.671 1.5 1.5 1.5S17 4.828 17 4s-.671-1.5-1.5-1.5z" fill="#383d4c"></path>
</svg>