<svg xmlns="http://www.w3.org/2000/svg" width="20px" height="20px" viewBox="0 0 20 20" fill="#383d4c">
    <path d="M15 12c2.205 0 4.298 1.794 4.666 3.999l.14.837c.048.29-.034.586-.224.81-.19.225-.469.354-.763.354l-3.171.001c.167-.474.215-.99.13-1.498L15.692 16h1.921c-.34-1.06-1.416-1.936-2.496-1.997-.349-.746-.834-1.425-1.419-2.002L15 12zm-2-9c2.206 0 4 1.794 4 4 0 2.084-1.646 4.41-3.87 4.497-.552-.443-1.17-.801-1.827-1.056.327-.374.614-.785.855-1.224.257.177.544.283.842.283 1.077 0 2-1.375 2-2.5 0-1.103-.897-2-2-2l-.083.003c-.115-.69-.35-1.34-.68-1.93C12.484 3.025 12.74 3 13 3zM9 12c2.205 0 4.298 1.794 4.666 3.999l.14.837c.048.29-.034.586-.224.81-.19.225-.469.354-.763.354H1.18c-.294 0-.572-.129-.763-.354-.19-.224-.27-.52-.223-.81L.334 16C.7 13.794 2.794 12 5 12h4zm0 2H5c-1.118 0-2.262.902-2.614 2h9.228c-.352-1.098-1.496-2-2.614-2zM7 2c2.206 0 4 1.794 4 4 0 2.124-1.71 4.5-4 4.5S3 8.124 3 6c0-2.206 1.794-4 4-4zm0 2c-1.103 0-2 .897-2 2 0 1.125.923 2.5 2 2.5S9 7.125 9 6c0-1.103-.897-2-2-2z" fill="#383d4c"></path>
</svg>