<svg xmlns="http://www.w3.org/2000/svg" width="20px" height="20px" viewBox="0 0 20 20" fill="#383d4c">
    <path fill-rule="evenodd" d="M10 2c1.762 0 3.43.65 4.724 1.834l.224.215c1.249 1.248 1.97 2.889 2.045 4.64L17 9c0 .584-.092 1.185-.266 1.801-.428 1.513-1.335 3.078-2.578 4.654-.6.76-1.24 1.476-1.88 2.126l-.326.324-.152.148-.385.359-.06.062c-.322.295-.73.477-1.165.518L10 19c-.502 0-.984-.189-1.35-.525l-.303-.284c-.188-.178-.397-.382-.622-.61-.64-.65-1.281-1.366-1.88-2.126-1.243-1.576-2.15-3.14-2.579-4.653C3.092 10.185 3 9.584 3 9c0-1.868.729-3.628 2.05-4.951C6.376 2.728 8.135 2 10 2zm0 2c-1.335 0-2.588.518-3.537 1.463C5.518 6.41 5 7.661 5 9c0 .39.064.811.19 1.258.345 1.218 1.13 2.571 2.225 3.96.55.698 1.143 1.36 1.735 1.96l.36.36c.144.139.262.25.352.332l.061.055L10 17l.077-.077.217-.2c.088-.083.191-.183.307-.297l.25-.25c.591-.6 1.184-1.262 1.734-1.96 1.095-1.389 1.88-2.742 2.225-3.96.126-.447.19-.867.19-1.257 0-1.247-.452-2.422-1.282-3.342l-.183-.193-.193-.183C12.421 4.45 11.246 4 10 4zm0 3c1.104 0 2 .896 2 2s-.896 2-2 2-2-.896-2-2 .896-2 2-2z" fill="#383d4c"></path>
</svg>